<svg width="800" height="250" viewBox="0 0 800 250" fill="none" xmlns="http://www.w3.org/2000/svg">
<g clip-path="url(#clip0_231_24)">
<path d="M225.4 198V59.2H244.2V198H225.4ZM238.2 198V180.8H317.8V198H238.2ZM238.2 135.2V118.8H311.2V135.2H238.2ZM238.2 76.4V59.2H316.8V76.4H238.2ZM355.769 198V180.8H394.369C404.635 180.8 413.635 178.6 421.369 174.2C429.102 169.667 435.102 163.467 439.369 155.6C443.769 147.733 445.969 138.667 445.969 128.4C445.969 118.267 443.769 109.267 439.369 101.4C434.969 93.5333 428.902 87.4 421.169 83C413.435 78.6 404.502 76.4 394.369 76.4H355.969V59.2H394.769C404.902 59.2 414.235 60.9333 422.769 64.4C431.435 67.8667 438.902 72.7333 445.169 79C451.569 85.2667 456.502 92.6 459.969 101C463.569 109.4 465.369 118.6 465.369 128.6C465.369 138.467 463.569 147.667 459.969 156.2C456.502 164.6 451.635 171.933 445.369 178.2C439.102 184.467 431.635 189.333 422.969 192.8C414.435 196.267 405.169 198 395.169 198H355.769ZM343.369 198V59.2H362.169V198H343.369ZM554.216 200C544.482 200 535.349 198.2 526.816 194.6C518.416 190.867 511.016 185.733 504.616 179.2C498.349 172.667 493.416 165.067 489.816 156.4C486.216 147.733 484.416 138.4 484.416 128.4C484.416 118.4 486.216 109.133 489.816 100.6C493.416 91.9333 498.416 84.3333 504.816 77.8C511.216 71.2667 518.682 66.2 527.216 62.6C535.882 59 545.282 57.2 555.416 57.2C566.482 57.2 576.682 59.3333 586.016 63.6C595.349 67.8667 603.149 74 609.416 82L596.416 95C592.016 88.6 586.216 83.7333 579.016 80.4C571.816 76.9333 563.949 75.2 555.416 75.2C545.282 75.2 536.282 77.4667 528.416 82C520.682 86.5333 514.616 92.8 510.216 100.8C505.949 108.8 503.816 118 503.816 128.4C503.816 138.933 506.016 148.2 510.416 156.2C514.816 164.2 520.749 170.467 528.216 175C535.682 179.533 544.216 181.8 553.816 181.8C563.549 181.8 571.949 179.933 579.016 176.2C586.216 172.467 591.749 167 595.616 159.8C599.482 152.467 601.416 143.533 601.416 133L612.816 141.2H552.816V124H620.816V126.8C620.816 142.933 617.949 156.467 612.216 167.4C606.616 178.2 598.749 186.333 588.616 191.8C578.616 197.267 567.149 200 554.216 200ZM646.103 198V59.2H664.903V198H646.103ZM658.903 198V180.8H738.503V198H658.903ZM658.903 135.2V118.8H731.903V135.2H658.903ZM658.903 76.4V59.2H737.503V76.4H658.903Z" fill="white"/>
<rect x="51" y="53" width="150" height="150" rx="15" fill="white"/>
<rect x="98.2373" y="84" width="70.7629" height="70.6368" rx="6" fill="black"/>
<rect x="81" y="119.475" width="52.6186" height="52.5248" rx="6" fill="white"/>
<rect x="81" y="124.804" width="47.2804" height="47.1962" rx="3" fill="black"/>
</g>
<defs>
<clipPath id="clip0_231_24">
<rect width="800" height="250" fill="white"/>
</clipPath>
</defs>
</svg>
